#Comment line ignore any data following # character 
#Hierarchical Translation and Rotation (.htr) file 
[Header]	
#Header keywords are followed by a single value 
FileType HTR		#Single word string
DataType HTRS		#Translation followed by rotation and scale data
FileVersion 1		#integer
NumSegments 84		#integer
NumFrames 2		#integer
DataFrameRate 30		#integer, data frame rate in this file
EulerRotationOrder ZYX
CalibrationUnits mm
RotationUnits Degrees
GlobalAxisofGravity Y
BoneLengthAxis Y
ScaleFactor 1.00
[SegmentNames&Hierarchy]
#CHILD	PARENT
MASTER GLOBAL
root MASTER
chest root
L_mid_tent01 root
R_mid_tent01 root
spine01 root
Bip01_Neck chest
L_humerus chest
R_humerus chest
weapon_bone chest
Bip01_Head Bip01_Neck
eye_left_bone Bip01_Head
eye_right_bone Bip01_Head
L_forearm L_humerus
L_front_hand L_forearm
L_weapon_bone L_forearm
L_front_hand01_01 L_front_hand
L_front_hand02_01 L_front_hand
L_front_hand03_01 L_front_hand
L_front_hand01_02 L_front_hand01_01
L_front_hand02_02 L_front_hand02_01
L_front_hand03_02 L_front_hand03_01
R_forearm R_humerus
R_front_hand R_forearm
R_weapon_bone R_forearm
R_front_hand01_01 R_front_hand
R_front_hand02_01 R_front_hand
R_front_hand03_01 R_front_hand
R_front_hand01_02 R_front_hand01_01
R_front_hand02_02 R_front_hand02_01
R_front_hand03_02 R_front_hand03_01
null_rope01_connect L_mid_tent01
Rope1_Seg01 null_rope01_connect
Rope1_Seg02 Rope1_Seg01
Rope1_Seg03 Rope1_Seg02
Rope1_Seg04 Rope1_Seg03
Rope1_Seg05 Rope1_Seg04
Rope1_Seg06 Rope1_Seg05
Rope1_Seg07 Rope1_Seg06
Rope1_Seg09 Rope1_Seg07
L_mid_hand01 Rope1_Seg09
L_mid_hand02 Rope1_Seg09
L_mid_hand03 Rope1_Seg09
null_rope02_connect R_mid_tent01
Rope2_Seg01 null_rope02_connect
Rope2_Seg02 Rope2_Seg01
Rope2_Seg03 Rope2_Seg02
Rope2_Seg04 Rope2_Seg03
Rope2_Seg05 Rope2_Seg04
Rope2_Seg06 Rope2_Seg05
Rope2_Seg07 Rope2_Seg06
Rope2_Seg09 Rope2_Seg07
R_mid_hand01 Rope2_Seg09
R_mid_hand02 Rope2_Seg09
R_mid_hand03 Rope2_Seg09
spine02 spine01
spine03 spine02
pelvis spine03
null_rope03_connect pelvis
null_rope04_connect pelvis
Rope3_Seg01 null_rope03_connect
Rope3_Seg02 Rope3_Seg01
Rope3_Seg03 Rope3_Seg02
Rope3_Seg04 Rope3_Seg03
Rope3_Seg05 Rope3_Seg04
Rope3_Seg06 Rope3_Seg05
Rope3_Seg07 Rope3_Seg06
Rope3_Seg08 Rope3_Seg07
Rope3_Seg09 Rope3_Seg08
R_rear_hand01 Rope3_Seg09
R_rear_hand02 Rope3_Seg09
R_rear_hand03 Rope3_Seg09
Rope4_Seg01 null_rope04_connect
Rope4_Seg02 Rope4_Seg01
Rope4_Seg03 Rope4_Seg02
Rope4_Seg04 Rope4_Seg03
Rope4_Seg05 Rope4_Seg04
Rope4_Seg06 Rope4_Seg05
Rope4_Seg07 Rope4_Seg06
Rope4_Seg08 Rope4_Seg07
Rope4_Seg09 Rope4_Seg08
L_rear_hand01 Rope4_Seg09
L_rear_hand02 Rope4_Seg09
L_rear_hand03 Rope4_Seg09
[BasePosition]
#SegmentName Tx, Ty, Tz, Rx, Ry, Rz, BoneLength
MASTER 0.000000 0.000000 0.000000 -90.000000 0.000000 0.000000 10.000000 
root 0.000000 0.000000 0.000000 0.000000 0.000000 0.000000 10.000000 
chest 0.000000 0.000000 0.000000 0.000000 0.000000 0.000000 10.000000 
L_mid_tent01 0.000000 0.000000 0.000000 0.000000 0.000000 0.000000 10.000000 
R_mid_tent01 0.000000 0.000000 0.000000 0.000000 0.000000 0.000000 10.000000 
spine01 0.000000 0.000000 0.000000 0.000000 0.000000 0.000000 10.000000 
Bip01_Neck 0.000000 0.000000 0.000000 0.000000 0.000000 0.000000 10.000000 
L_humerus 0.000000 0.000000 0.000000 0.000000 0.000000 0.000000 10.000000 
R_humerus 0.000000 0.000000 0.000000 0.000000 0.000000 0.000000 10.000000 
weapon_bone 0.000000 0.000000 0.000000 0.000000 0.000000 0.000000 10.000000 
Bip01_Head 0.000000 0.000000 0.000000 0.000000 0.000000 0.000000 10.000000 
eye_left_bone 0.000000 0.000000 0.000000 0.000000 0.000000 0.000000 10.000000 
eye_right_bone 0.000000 0.000000 0.000000 0.000000 0.000000 0.000000 10.000000 
L_forearm 0.000000 0.000000 0.000000 0.000000 0.000000 0.000000 10.000000 
L_front_hand 0.000000 0.000000 0.000000 0.000000 0.000000 0.000000 10.000000 
L_weapon_bone 0.000000 0.000000 0.000000 0.000000 0.000000 0.000000 10.000000 
L_front_hand01_01 0.000000 0.000000 0.000000 0.000000 0.000000 0.000000 10.000000 
L_front_hand02_01 0.000000 0.000000 0.000000 0.000000 0.000000 0.000000 10.000000 
L_front_hand03_01 0.000000 0.000000 0.000000 0.000000 0.000000 0.000000 10.000000 
L_front_hand01_02 0.000000 0.000000 0.000000 0.000000 0.000000 0.000000 10.000000 
L_front_hand02_02 0.000000 0.000000 0.000000 0.000000 0.000000 0.000000 10.000000 
L_front_hand03_02 0.000000 0.000000 0.000000 0.000000 0.000000 0.000000 10.000000 
R_forearm 0.000000 0.000000 0.000000 0.000000 0.000000 0.000000 10.000000 
R_front_hand 0.000000 0.000000 0.000000 0.000000 0.000000 0.000000 10.000000 
R_weapon_bone 0.000000 0.000000 0.000000 0.000000 0.000000 0.000000 10.000000 
R_front_hand01_01 0.000000 0.000000 0.000000 0.000000 0.000000 0.000000 10.000000 
R_front_hand02_01 0.000000 0.000000 0.000000 0.000000 0.000000 0.000000 10.000000 
R_front_hand03_01 0.000000 0.000000 0.000000 0.000000 0.000000 0.000000 10.000000 
R_front_hand01_02 0.000000 0.000000 0.000000 0.000000 0.000000 0.000000 10.000000 
R_front_hand02_02 0.000000 0.000000 0.000000 0.000000 0.000000 0.000000 10.000000 
R_front_hand03_02 0.000000 0.000000 0.000000 0.000000 0.000000 0.000000 10.000000 
null_rope01_connect 0.000000 0.000000 0.000000 0.000000 0.000000 0.000000 10.000000 
Rope1_Seg01 0.000000 0.000000 0.000000 0.000000 0.000000 0.000000 10.000000 
Rope1_Seg02 0.000000 0.000000 0.000000 0.000000 0.000000 0.000000 10.000000 
Rope1_Seg03 0.000000 0.000000 0.000000 0.000000 0.000000 0.000000 10.000000 
Rope1_Seg04 0.000000 0.000000 0.000000 0.000000 0.000000 0.000000 10.000000 
Rope1_Seg05 0.000000 0.000000 0.000000 0.000000 0.000000 0.000000 10.000000 
Rope1_Seg06 0.000000 0.000000 0.000000 0.000000 0.000000 0.000000 10.000000 
Rope1_Seg07 0.000000 0.000000 0.000000 0.000000 0.000000 0.000000 10.000000 
Rope1_Seg09 0.000000 0.000000 0.000000 0.000000 0.000000 0.000000 10.000000 
L_mid_hand01 0.000000 0.000000 0.000000 0.000000 0.000000 0.000000 10.000000 
L_mid_hand02 0.000000 0.000000 0.000000 0.000000 0.000000 0.000000 10.000000 
L_mid_hand03 0.000000 0.000000 0.000000 0.000000 0.000000 0.000000 10.000000 
null_rope02_connect 0.000000 0.000000 0.000000 0.000000 0.000000 0.000000 10.000000 
Rope2_Seg01 0.000000 0.000000 0.000000 0.000000 0.000000 0.000000 10.000000 
Rope2_Seg02 0.000000 0.000000 0.000000 0.000000 0.000000 0.000000 10.000000 
Rope2_Seg03 0.000000 0.000000 0.000000 0.000000 0.000000 0.000000 10.000000 
Rope2_Seg04 0.000000 0.000000 0.000000 0.000000 0.000000 0.000000 10.000000 
Rope2_Seg05 0.000000 0.000000 0.000000 0.000000 0.000000 0.000000 10.000000 
Rope2_Seg06 0.000000 0.000000 0.000000 0.000000 0.000000 0.000000 10.000000 
Rope2_Seg07 0.000000 0.000000 0.000000 0.000000 0.000000 0.000000 10.000000 
Rope2_Seg09 0.000000 0.000000 0.000000 0.000000 0.000000 0.000000 10.000000 
R_mid_hand01 0.000000 0.000000 0.000000 0.000000 0.000000 0.000000 10.000000 
R_mid_hand02 0.000000 0.000000 0.000000 0.000000 0.000000 0.000000 10.000000 
R_mid_hand03 0.000000 0.000000 0.000000 0.000000 0.000000 0.000000 10.000000 
spine02 0.000000 0.000000 0.000000 0.000000 0.000000 0.000000 10.000000 
spine03 0.000000 0.000000 0.000000 0.000000 0.000000 0.000000 10.000000 
pelvis 0.000000 0.000000 0.000000 0.000000 0.000000 0.000000 10.000000 
null_rope03_connect 0.000000 0.000000 0.000000 0.000000 0.000000 0.000000 10.000000 
null_rope04_connect 0.000000 0.000000 0.000000 0.000000 0.000000 0.000000 10.000000 
Rope3_Seg01 0.000000 0.000000 0.000000 0.000000 0.000000 0.000000 10.000000 
Rope3_Seg02 0.000000 0.000000 0.000000 0.000000 0.000000 0.000000 10.000000 
Rope3_Seg03 0.000000 0.000000 0.000000 0.000000 0.000000 0.000000 10.000000 
Rope3_Seg04 0.000000 0.000000 0.000000 0.000000 0.000000 0.000000 10.000000 
Rope3_Seg05 0.000000 0.000000 0.000000 0.000000 0.000000 0.000000 10.000000 
Rope3_Seg06 0.000000 0.000000 0.000000 0.000000 0.000000 0.000000 10.000000 
Rope3_Seg07 0.000000 0.000000 0.000000 0.000000 0.000000 0.000000 10.000000 
Rope3_Seg08 0.000000 0.000000 0.000000 0.000000 0.000000 0.000000 10.000000 
Rope3_Seg09 0.000000 0.000000 0.000000 0.000000 0.000000 0.000000 10.000000 
R_rear_hand01 0.000000 0.000000 0.000000 0.000000 0.000000 0.000000 10.000000 
R_rear_hand02 0.000000 0.000000 0.000000 0.000000 0.000000 0.000000 10.000000 
R_rear_hand03 0.000000 0.000000 0.000000 0.000000 0.000000 0.000000 10.000000 
Rope4_Seg01 0.000000 0.000000 0.000000 0.000000 0.000000 0.000000 10.000000 
Rope4_Seg02 0.000000 0.000000 0.000000 0.000000 0.000000 0.000000 10.000000 
Rope4_Seg03 0.000000 0.000000 0.000000 0.000000 0.000000 0.000000 10.000000 
Rope4_Seg04 0.000000 0.000000 0.000000 0.000000 0.000000 0.000000 10.000000 
Rope4_Seg05 0.000000 0.000000 0.000000 0.000000 0.000000 0.000000 10.000000 
Rope4_Seg06 0.000000 0.000000 0.000000 0.000000 0.000000 0.000000 10.000000 
Rope4_Seg07 0.000000 0.000000 0.000000 0.000000 0.000000 0.000000 10.000000 
Rope4_Seg08 0.000000 0.000000 0.000000 0.000000 0.000000 0.000000 10.000000 
Rope4_Seg09 0.000000 0.000000 0.000000 0.000000 0.000000 0.000000 10.000000 
L_rear_hand01 0.000000 0.000000 0.000000 0.000000 0.000000 0.000000 10.000000 
L_rear_hand02 0.000000 0.000000 0.000000 0.000000 0.000000 0.000000 10.000000 
L_rear_hand03 0.000000 0.000000 0.000000 0.000000 0.000000 0.000000 10.000000 
#Beginning of Data. Separated by tabs
#Fr	Tx	Ty	Tz	Rx	Ry	Rz	SF
[MASTER]
9 0.000000 0.000000 0.000000 0.001660 0.001660 0.001660 0.000000
10 0.000000 0.000000 0.000000 0.001660 0.001660 0.001660 0.000000
[root]
9 -37.224403 -51.750271 2748.277344 -82.715286 -1.942899 -101.629219 2749.016602
10 -37.882366 -51.398724 3110.376709 -85.819000 0.718247 -100.320526 3111.031738
[chest]
9 -84.512650 -34.090519 0.000000 23.768110 0.933290 146.051102 91.129311
10 -84.512650 -34.090519 0.000000 20.685555 -5.077556 146.970383 91.129311
[L_mid_tent01]
9 27.299526 22.177685 -249.918228 1.910071 5.793779 78.854721 252.381134
10 27.299530 22.177689 -249.918228 2.095419 -2.463950 78.687622 252.381134
[R_mid_tent01]
9 23.228794 24.509907 226.238495 165.244659 -7.740510 75.472122 228.744751
10 23.228794 24.509907 226.238495 165.777695 -0.481382 72.672539 228.744751
[spine01]
9 -0.361383 -0.195265 0.000000 0.002062 0.001122 32.879829 0.410763
10 -0.361383 -0.195265 0.000000 0.002062 0.001122 32.879829 0.410763
[Bip01_Neck]
9 165.484543 71.581718 0.000119 176.643677 -1.657967 43.431911 180.302734
10 165.484543 71.581718 0.000119 176.643677 -1.657967 43.431911 180.302734
[L_humerus]
9 -13.983130 -135.272980 -120.471481 168.234543 25.604164 -71.609306 181.680161
10 -13.983130 -135.272980 -120.471481 166.548721 22.391834 -69.039986 181.680161
[R_humerus]
9 -13.983309 -135.273102 125.287651 -177.587463 -24.161964 -85.133850 184.909012
10 -13.983309 -135.273102 125.287651 -177.475830 -19.239618 -85.183052 184.909012
[weapon_bone]
9 235.964890 -300.705902 0.000000 0.000000 -89.951546 -128.212341 382.234833
10 235.964890 -300.705902 0.000000 0.000000 -89.951546 -128.212341 382.234833
[Bip01_Head]
9 213.630142 185.198196 18.453899 31.706104 1.114090 -43.897289 283.331512
10 213.583969 185.326843 16.794930 31.812307 0.614874 -43.899479 283.277649
[eye_left_bone]
9 -24.626970 125.451866 -64.772606 0.000000 -90.000000 -99.840431 143.318359
10 -24.626970 125.451866 -64.772606 0.000000 -90.000000 -99.840431 143.318359
[eye_right_bone]
9 -24.626970 125.451866 64.327362 0.000000 -89.980217 80.156387 143.117676
10 -24.626970 125.451866 64.327362 0.000000 -89.965736 80.156380 143.117676
[L_forearm]
9 322.776093 0.000000 -0.000119 0.000119 -0.002344 -95.807457 322.776093
10 322.776093 0.000000 -0.000119 0.000119 -0.002344 -95.807457 322.776093
[L_front_hand]
9 241.149185 -0.042021 -3.300071 -178.667953 -1.835447 -27.422346 241.171753
10 241.149185 -0.042021 -3.300071 -178.667953 -1.835447 -27.422342 241.171753
[L_weapon_bone]
9 156.183838 0.000000 0.000000 0.000014 0.000007 0.000001 156.183838
10 156.183838 0.000000 0.000000 0.000014 0.000007 0.000001 156.183838
[L_front_hand01_01]
9 86.095154 20.947098 -0.655860 -0.306535 -0.513312 68.646957 88.609184
10 86.095154 20.947098 -0.655860 -0.291918 -0.522545 67.227623 88.609184
[L_front_hand02_01]
9 86.935165 -11.437475 24.513514 145.004044 -56.473930 -50.323570 91.046425
10 86.935165 -11.437475 24.513514 143.299133 -55.645813 -48.269917 91.046425
[L_front_hand03_01]
9 86.637497 -14.123976 -20.424902 -145.151367 54.687611 -52.198399 90.126129
10 86.637497 -14.123976 -20.424902 -143.556335 53.862476 -50.232788 90.126129
[L_front_hand01_02]
9 71.020905 -0.000179 0.000030 0.000316 -0.002326 -105.490036 71.020905
10 71.020905 -0.000179 0.000030 0.000316 -0.002326 -105.466431 71.020905
[L_front_hand02_02]
9 71.020927 -0.000119 0.000060 0.000316 -0.002326 -105.490036 71.020927
10 71.020927 -0.000119 0.000060 0.000316 -0.002326 -105.466431 71.020927
[L_front_hand03_02]
9 71.020905 -0.000060 0.000060 0.000316 -0.002326 -105.490036 71.020905
10 71.020905 -0.000060 0.000060 0.000316 -0.002326 -105.466431 71.020905
[R_forearm]
9 322.776428 -0.000060 0.000030 0.209504 0.012586 -94.339050 322.776428
10 322.776428 -0.000060 0.000030 0.209504 0.012586 -94.339050 322.776428
[R_front_hand]
9 238.847015 -0.006795 2.210259 -2.635298 -10.645461 -26.312506 238.857239
10 238.847015 -0.006795 2.210259 -2.635298 -10.645461 -26.312506 238.857239
[R_weapon_bone]
9 155.664093 0.002503 -0.000030 0.003487 0.001180 -90.988930 155.664078
10 155.664093 0.002503 -0.000030 0.003487 0.001180 -90.988930 155.664078
[R_front_hand01_01]
9 87.624611 14.231146 22.918642 -145.613235 -56.747219 51.157963 91.683487
10 87.624611 14.231146 22.918642 -143.671631 -55.829556 48.823868 91.683487
[R_front_hand02_01]
9 89.356956 14.367283 -19.491137 146.110458 55.128284 53.601921 92.579636
10 89.356956 14.367283 -19.491137 144.272369 54.223438 51.351048 92.579636
[R_front_hand03_01]
9 87.286232 -22.307278 -0.143439 0.113738 -0.439575 -69.369316 90.091743
10 87.286232 -22.307278 -0.143439 0.102142 -0.441771 -67.781387 90.091743
[R_front_hand01_02]
9 71.020905 0.000060 0.000119 0.002323 -0.000334 106.381714 71.020905
10 71.020905 0.000060 0.000119 0.002323 -0.000334 106.381706 71.020905
[R_front_hand02_02]
9 71.020844 -0.000030 -0.000119 0.002323 -0.000334 106.381714 71.020836
10 71.020844 -0.000030 -0.000119 0.002323 -0.000334 106.381706 71.020836
[R_front_hand03_02]
9 71.020905 0.000000 0.000030 0.002323 -0.000334 106.381714 71.020905
10 71.020905 0.000000 0.000030 0.002323 -0.000334 106.381706 71.020905
[null_rope01_connect]
9 328.732483 0.000000 -0.000238 -81.846878 -75.304855 95.048340 328.732483
10 328.732483 0.000000 -0.000238 -59.478516 -76.145409 70.605888 328.732483
[Rope1_Seg01]
9 0.000014 -0.000076 -0.000014 -39.497223 57.637749 -44.152184 0.000079
10 0.000016 -0.000076 -0.000035 -40.105362 62.488731 -41.927235 0.000085
[Rope1_Seg02]
9 139.999863 -0.000179 0.000000 -0.389525 3.523903 -3.222030 139.999863
10 139.999863 -0.000179 0.000000 -0.205839 3.439603 -3.612150 139.999863
[Rope1_Seg03]
9 139.999924 0.000060 -0.000060 -0.796550 5.242198 -4.769290 139.999924
10 139.999924 0.000060 -0.000060 -0.418791 4.979566 -5.221200 139.999924
[Rope1_Seg04]
9 139.999924 -0.000060 -0.000119 -2.284003 11.940358 -12.620779 139.999924
10 139.999924 -0.000060 -0.000119 -3.432635 12.622026 -12.096894 139.999924
[Rope1_Seg05]
9 139.999832 0.000119 -0.000060 -6.193435 5.428349 -0.897176 139.999832
10 139.999832 0.000119 -0.000060 1.656252 3.900203 -5.828974 139.999832
[Rope1_Seg06]
9 139.999954 0.000119 -0.000060 -2.103641 -2.980715 5.337989 139.999954
10 139.999954 0.000119 -0.000060 3.427945 -7.476704 4.658202 139.999954
[Rope1_Seg07]
9 139.999985 0.000060 0.000000 -1.111058 0.013182 1.188572 139.999985
10 139.999985 0.000060 0.000000 0.944027 -1.447351 0.578342 139.999985
[Rope1_Seg09]
9 121.602913 0.000119 -0.000089 -89.793175 -1.359789 0.847147 121.602913
10 121.602913 0.000119 -0.000089 -89.793175 -1.359789 0.847147 121.602913
[L_mid_hand01]
9 103.859421 1.038730 8.195221 109.056190 -40.604698 -13.201404 104.187431
10 103.859421 1.038730 8.195221 109.301483 -41.408253 -13.576799 104.187431
[L_mid_hand02]
9 105.572853 -4.139662 -10.864139 -146.713593 31.476528 -37.902313 106.211075
10 105.572853 -4.139662 -10.864139 -147.153671 31.943630 -38.737034 106.211075
[L_mid_hand03]
9 104.641464 17.579376 -3.913581 -14.267232 12.322316 43.898403 106.179977
10 104.641464 17.579376 -3.913581 -14.087292 12.528420 44.741467 106.179977
[null_rope02_connect]
9 328.732849 0.000179 -0.000119 -152.762039 78.738411 7.695259 328.732849
10 328.732849 0.000179 -0.000119 -98.210579 86.586937 64.569092 328.732849
[Rope2_Seg01]
9 -0.000069 0.000135 0.000097 125.584091 75.991692 -116.098946 0.000180
10 -0.000078 0.000133 0.000090 108.376701 77.334259 -134.199814 0.000178
[Rope2_Seg02]
9 139.999741 -0.000060 -0.000119 -2.118598 2.604634 4.744365 139.999756
10 139.999741 -0.000060 -0.000119 -1.617254 3.268172 4.167377 139.999756
[Rope2_Seg03]
9 140.000107 0.000030 0.000000 -1.835033 1.389997 4.467191 140.000107
10 140.000107 0.000030 0.000000 -1.875890 3.232710 4.710376 140.000107
[Rope2_Seg04]
9 139.999802 0.000000 -0.000060 -1.441797 -1.477234 4.824699 139.999802
10 139.999802 0.000000 -0.000060 -2.246549 0.582905 7.137903 139.999802
[Rope2_Seg05]
9 139.999985 -0.000060 0.000119 -1.321374 5.092488 1.646076 139.999985
10 139.999985 -0.000060 0.000119 -1.923426 6.596231 3.230676 139.999985
[Rope2_Seg06]
9 139.999893 -0.000030 -0.000119 -2.503108 11.914240 -0.746992 139.999893
10 139.999893 -0.000030 -0.000119 -1.714354 10.203005 -1.477321 139.999893
[Rope2_Seg07]
9 139.999893 0.000060 -0.000060 -3.088761 8.777514 0.196247 139.999893
10 139.999893 0.000060 -0.000060 -1.563340 5.428086 -0.112068 139.999893
[Rope2_Seg09]
9 121.338966 0.000089 -0.000060 33.793236 -1.359788 -0.847141 121.338966
10 121.338966 0.000089 -0.000060 33.793236 -1.359788 -0.847141 121.338966
[R_mid_hand01]
9 104.680779 11.144459 -10.335981 -33.085686 36.191681 44.913227 105.778534
10 104.680779 11.144459 -10.335981 -34.826851 34.540035 41.908733 105.778534
[R_mid_hand02]
9 104.070427 2.443552 8.231699 67.611252 -49.370300 17.897308 104.424065
10 104.070427 2.443552 8.231699 68.824310 -46.622631 16.260359 104.424065
[R_mid_hand03]
9 106.028137 -11.221827 -5.996406 -171.571182 13.427422 -54.737041 106.788818
10 106.028137 -11.221827 -5.996406 -170.883774 12.973572 -51.735531 106.788818
[spine02]
9 129.756927 0.001550 0.000119 -1.023899 -3.926965 6.770992 129.756927
10 129.756927 0.001550 0.000119 -1.023899 -3.926965 6.770993 129.756927
[spine03]
9 78.613892 0.087391 -4.898865 1.040681 4.146420 4.212376 78.766426
10 78.613892 0.087405 -4.898862 1.040680 4.146419 4.212375 78.766426
[pelvis]
9 169.435242 0.051022 0.000000 0.019518 -0.190233 -10.721436 169.435257
10 169.435242 0.051022 0.000000 0.019518 -0.190233 -10.721436 169.435257
[null_rope03_connect]
9 -1.257226 -2.466202 137.391083 -57.897785 -76.754623 117.493011 137.418976
10 -1.257226 -2.466202 137.391083 -69.041931 -79.031517 125.625305 137.418976
[null_rope04_connect]
9 -1.259640 -2.480268 -137.844437 -57.897785 -76.754623 117.493011 137.872513
10 -1.259640 -2.480268 -137.844437 -69.041931 -79.031517 125.625305 137.872513
[Rope3_Seg01]
9 0.000028 -0.000050 0.000111 -143.683090 33.483891 -97.947693 0.000125
10 0.000031 -0.000049 0.000125 -161.090759 44.314602 -113.950996 0.000138
[Rope3_Seg02]
9 139.999924 -0.000119 0.000060 -7.954574 -16.877285 5.845739 139.999924
10 139.999924 -0.000119 0.000060 -6.713571 -11.080743 1.415168 139.999924
[Rope3_Seg03]
9 139.999924 -0.000119 0.000119 -5.935662 -18.102934 4.910413 139.999924
10 139.999924 -0.000119 0.000119 -4.690471 -10.069403 0.608915 139.999924
[Rope3_Seg04]
9 139.999924 0.000119 0.000000 -1.898452 -10.733556 1.188575 139.999924
10 139.999924 0.000119 0.000000 -3.967522 -10.386449 0.824534 139.999924
[Rope3_Seg05]
9 139.999924 -0.000238 0.000060 0.775424 4.540908 -3.715172 139.999924
10 139.999924 -0.000238 0.000060 0.375848 -0.683682 -2.191707 139.999924
[Rope3_Seg06]
9 139.999893 -0.000119 -0.000060 1.051700 5.085903 -3.343400 139.999893
10 139.999893 -0.000119 -0.000060 2.524864 5.782537 -3.705279 139.999893
[Rope3_Seg07]
9 139.999771 0.000060 -0.000119 0.760563 1.560959 -1.664819 139.999771
10 139.999771 0.000060 -0.000119 1.838229 3.330893 -2.711321 139.999771
[Rope3_Seg08]
9 139.999985 -0.000060 0.000000 0.694386 1.002490 -1.100182 139.999985
10 139.999985 -0.000060 0.000000 1.164930 1.377987 -1.577092 139.999985
[Rope3_Seg09]
9 90.185997 -0.000179 -0.000060 89.793228 -1.359877 -0.847183 90.185997
10 90.185997 -0.000179 -0.000060 89.793228 -1.359877 -0.847183 90.185997
[R_rear_hand01]
9 103.366196 -6.073594 -10.757982 -166.818848 21.039259 -46.280426 104.101845
10 103.366196 -6.073594 -10.757982 -165.718872 20.328495 -43.170486 104.101845
[R_rear_hand02]
9 100.509819 12.039542 -7.992327 -28.339693 27.613865 43.697414 101.543350
10 100.509819 12.039542 -7.992327 -29.668055 26.160351 40.761948 101.543350
[R_rear_hand03]
9 101.539970 5.215704 5.435467 81.685280 -46.725750 9.939899 101.819031
10 101.539970 5.215704 5.435467 82.115250 -43.756126 9.334551 101.819031
[Rope4_Seg01]
9 0.000014 -0.000049 -0.000208 45.757912 35.470272 -113.176498 0.000214
10 0.000016 -0.000045 -0.000215 44.798660 46.595245 -115.202614 0.000220
[Rope4_Seg02]
9 139.999985 0.000060 0.000119 0.097135 5.541113 -4.475852 139.999985
10 139.999985 0.000060 0.000119 0.373321 6.978905 0.163167 139.999985
[Rope4_Seg03]
9 139.999924 0.000000 -0.000238 0.257510 3.091843 -1.520205 139.999924
10 139.999924 0.000000 -0.000238 0.315817 4.367575 0.840241 139.999924
[Rope4_Seg04]
9 139.999985 0.000000 0.000119 0.337346 2.385975 -1.698012 139.999985
10 139.999985 0.000000 0.000119 0.154443 2.953186 1.128705 139.999985
[Rope4_Seg05]
9 139.999802 -0.000060 -0.000119 0.931389 4.073992 -6.605496 139.999802
10 139.999802 -0.000060 -0.000119 0.859336 1.955209 -1.922813 139.999802
[Rope4_Seg06]
9 139.999924 0.000000 0.000060 1.252654 4.580006 -8.544428 139.999924
10 139.999924 0.000000 0.000060 1.499911 1.498050 -4.278273 139.999924
[Rope4_Seg07]
9 139.999802 0.000000 0.000000 1.037648 3.134529 -5.766217 139.999802
10 139.999802 0.000000 0.000000 1.253410 1.316212 -3.461731 139.999802
[Rope4_Seg08]
9 139.999924 0.000000 0.000119 -0.752697 2.127616 -4.104055 139.999924
10 139.999924 0.000000 0.000119 -0.748246 0.967344 -2.106809 139.999924
[Rope4_Seg09]
9 90.185791 0.000060 0.000060 -135.617828 2.228885 0.850567 90.185791
10 90.185791 0.000060 0.000060 -135.617828 2.228885 0.850567 90.185791
[L_rear_hand01]
9 101.696655 -8.392275 -7.654577 -30.719042 -24.879360 141.681366 102.329041
10 101.696655 -8.392275 -7.654577 -29.575453 -26.270130 139.027267 102.329041
[L_rear_hand02]
9 102.726799 -1.568258 5.773216 82.428490 41.230476 171.131027 102.900848
10 102.726799 -1.568258 5.773216 82.088585 43.973633 170.624878 102.900848
[L_rear_hand03]
9 104.552910 9.721220 -10.420293 -164.822937 -19.676041 -139.457672 105.519653
10 104.552910 9.721220 -10.420293 -165.800003 -20.376877 -136.601624 105.519653
